/* XPM */
static char *_ee211bef95c453cb465de18b685b527TZDxQirX2CWV8bxM[] = {
/* columns rows colors chars-per-pixel */
"64 64 165 2 ",
"   c None",
".  c #003F00",
"X  c #1A2C1A",
"o  c #253925",
"O  c #2A392A",
"+  c #064506",
"@  c #004C00",
"#  c #084108",
"$  c #0C4B0C",
"%  c #025302",
"&  c #015C01",
"*  c #0C530C",
"=  c #0B5A0B",
"-  c #154215",
";  c #1A431A",
":  c #1C4C1C",
">  c #125D12",
",  c #1C541C",
"<  c #1E5B1E",
"1  c #016401",
"2  c #006C00",
"3  c #0C630C",
"4  c #0C6D0C",
"5  c #017401",
"6  c #007C00",
"7  c #0C750C",
"8  c #0C7D0C",
"9  c #126212",
"0  c #126F12",
"q  c #1C631C",
"w  c #1C6C1C",
"e  c #117111",
"r  c #147B14",
"t  c #1C7B1C",
"y  c #254425",
"u  c #224A22",
"i  c #2D4C2D",
"p  c #235423",
"a  c #245924",
"s  c #2F5A2F",
"d  c #334033",
"f  c #354C35",
"g  c #3D423D",
"h  c #3E4F3E",
"j  c #345334",
"k  c #325B32",
"l  c #3A533A",
"z  c #246224",
"x  c #246C24",
"c  c #2C632C",
"v  c #286E28",
"b  c #247524",
"n  c #237A23",
"m  c #2B732B",
"M  c #2A7E2A",
"N  c #336333",
"B  c #306D30",
"V  c #396039",
"C  c #396A39",
"Z  c #357E35",
"A  c #4B4F4B",
"S  c #435443",
"D  c #445D44",
"F  c #457F45",
"G  c #008300",
"H  c #018B01",
"J  c #0D830D",
"K  c #0A8C0A",
"L  c #009400",
"P  c #009C00",
"I  c #0B920B",
"U  c #0B9C0B",
"Y  c #118411",
"T  c #138A13",
"R  c #1B851B",
"E  c #1B8E1B",
"W  c #139213",
"Q  c #119D11",
"!  c #1B911B",
"~  c #1E9D1E",
"^  c #00A300",
"/  c #00AC00",
"(  c #0BA50B",
")  c #0BAC0B",
"_  c #00B300",
"`  c #00BC00",
"'  c #0AB30A",
"]  c #0BBC0B",
"[  c #14A614",
"{  c #13AD13",
"}  c #1BA51B",
"|  c #13B313",
" . c #12B812",
".. c #1AB31A",
"X. c #218221",
"o. c #238B23",
"O. c #229722",
"+. c #229722",
"@. c #209A20",
"#. c #209F20",
"$. c #279C27",
"%. c #229B22",
"&. c #2A962A",
"*. c #2A962A",
"=. c #2B9A2B",
"-. c #299D29",
";. c #2C9B2C",
":. c #338733",
">. c #338733",
",. c #328932",
"<. c #328932",
"1. c #3F8B3F",
"2. c #359635",
"3. c #359635",
"4. c #25A425",
"5. c #25A425",
"6. c #23AA23",
"7. c #24AC24",
"8. c #25AC25",
"9. c #2BA62B",
"0. c #2BA62B",
"q. c #2EB32E",
"w. c #00C000",
"e. c #00C100",
"r. c #00C200",
"t. c #00C300",
"y. c #03C203",
"u. c #03C303",
"i. c #00C400",
"p. c #00C500",
"a. c #01C401",
"s. c #00C600",
"d. c #00C700",
"f. c #01C701",
"g. c #05C105",
"h. c #00C400",
"j. c #00C800",
"k. c #00C900",
"l. c #00CA00",
"z. c #00CB00",
"x. c #00CC00",
"c. c #00CD00",
"v. c #00CE00",
"b. c #02CE02",
"n. c #03CE03",
"m. c #04C804",
"M. c #00CA00",
"N. c #00D000",
"B. c #00D100",
"V. c #01D001",
"C. c #00D300",
"Z. c #00D400",
"A. c #00D500",
"S. c #00D600",
"D. c #00D300",
"F. c #00D800",
"G. c #01DC01",
"H. c #00D900",
"J. c #00E100",
"K. c #01E201",
"L. c #01E201",
"P. c #448044",
"I. c #448444",
"U. c #438843",
"Y. c #438843",
/* pixels */
"O.y.i.i.` H ` H / L 5 6 _ _ _ ^ 5 ` H _ H ` l.c.` * X ] i.L y.G.C i.i.i.i.i.P i.c.L Z.Z.L P ^ ^ / ( t     ] H L / ` ` y.i.` 5 a ",
"  { y.y._ H l.L L H / 1 % 6 ^ 0 5 _ H ^ 6 i.L P P P = & 6 L _ K.] ^ ^ i.` P P P c./ C.c.C.L H H e b     ,.H ^ 2 L P L ^ / I M A ",
"  P.! _ P H l.l.l.l.i.^ 2 5 P K G P ` y.1 H L / / ` H 2 & H / P K.^ / _ _ P ` / C._ L L L H / ^ z       L _ c.P i.i.i.i.G x     ",
"  g h R H i.l.l.l.i.i.i.P @ H ^ y.L ^ _ 1 P / ` ` _ P 6 6 P L G 2 P H P _ ^ i.y._ 5 G P / H 1 g.      b ` Z.G.y.H y.y.6.        ",
"  l S o * G i.l.l.l.y.y.` 5 H L ` y.L 1 G _ ` _ / y.^ L H P ^ 2 % 2 6 _ / l.l.i._ H / y.c.` H ]       [ c.C.Z.Z.8 ..8.          ",
"T W R @.! n | i.l.i.` y.` H G L _ G 5 @ / y.y.y.P ^ P ^ / _ _ / 5 2 L _ _ / l.` / ` l.c.i._ P  .      c.C.L P P p c         A N ",
"_ _ _ ` ` v Z [ ` ` / ^ P _ & 6 5 G 6 _ y.y.y.^ / / _ L L G ^ L _ P ` P _ _ ^ _ y.^ l.y.` ` / #.  i G L ^ ^ _ ` [ ..U.    y q I ",
"i.y.y.y.`     s I P H L i.L P / ^ ^ G / y.y.y.^ _ ^ ` L L G P H i.P ` 5 L / P ^ _ P / ^ i.i.K b   < / _ ` ` ` y.l.i.] X.:.8 _ y.",
"y.H H y._ V     H G ` y.y.L _ l.i._ H L y.y.y.` P 6 L / _ P L l.l.^ / 2 1 2 L L L _ / _ _ ` _ M   m._ i.i.y._ y.l.l...B | L y.i.",
"L P P H / s   B _ ` y.i.i.L L / / P 6 2 ` ` _ ^ G & P l.C.y.^ H i.L .. .7 6 ` i._ / i.` / ` I $.=.J i.i.i.i.` i.i.l.4.  | _ i.H ",
"/ ` ` _ L * c I / ` L P 6 G ^ l.l.y._ 6 8 U ^ L & G / i.C.C./ H ] p   2.&.K ` y._ / i.y./ _ U 9.r P i.i.i.i.` ` ` -.    W y.L P ",
"y.i.i.i._ P = 5 L / 5 ^ ` l.c.Z.Z.C.c.` Y e / ^ G _ ` i.l.C.` H J k     o.^ ` _ / i.i.y.H P y.} T ` i.i.i.L P G 7 l     R L _ ` ",
"i.i.i.i.i.` H 5 1 6 H y.C.Z.Z.Z.C.C.C.m...J H ^ G _ i.y.y.c.l./ = = 8 & 6 P / _ y.y.y._ H G _ Q 7 _ _ ` L ^ _ ^ I v   f @.H ` i.",
"i.i.i.i.L H _ 5 % G y.i.c.C.C.C.C.c.] { ~ E { ^ G y.i.l.l.C.C.L 1 G L P 5 L ^ / ` _ _ ^ / c._ ^ r L 6 H L / ` _ ` ( E v 1.- P i.",
"y.i.i.i.L L P H 2 5 P _ ` y.i.c.l.y./ ' Y n ! / G y.Z.Z.Z.Z.C.H ^ ` ` y.G H L ^ / y.y._ / c.y.I J 7 H ^ / ` ` _ ` / _ ' M O < / ",
"^ y.H L P / / _ P P l./ ` ^ P _ / / i._ ` J r ) _ c.Z.Z.Z.Z._ G ` i.i.i.^ % H G P y.` _ / i./ ^ U 5 H ^ / / ^ ^ / _ ` ` _ ; y $ ",
"1 / H / _ ` _ ` ^ ` l.l./ L P P H y.) U P P 3 } K ( l.Z.Z.i.L G i.i.i.i./ 2 2 @ 6 P _ / c._ / H 5 G L ^ _ _ P ^ _ _ _ ` ` H 5 & ",
"2 2 L ` ` _ _ ` _ G l.l._ _ G 6 H 9 K K ^ L I w ;.b 8.C.C.^ H G i.i.i.i.^ L 5 H 2 2 6 L _ L 7 6 L H H L ^ _ P ^ _ _ _ _ L 6 1 ^ ",
"6 H _ ` H G / _ _ 6 l.l./ P H U Q 8 G ) ) / ' T m     ] / L H H i.y.i.i.P ` G G ^ L G G K t 9 ( ` _ P 6 G J H ^ / ^ L H H 6 L & ",
"y.L _ ` H H 6 6 P 1 P / L ^ P I { ^ L H ] _ _ _ b i   c 4 2 y.i.i.y.y.` / i.L 6 L i.` ( I.M r ` y.y.` P G 5 1 G L 5 H ` l.c./ & ",
"H / _ G H P L 6 2 G P ` L _ _ _  .) _ L i.] _ _ ^ 4 j d x ^ ` i.i.y.` _ L c.G H L l.H e D i P i.i.i.y.` ^ 6 6 ^ P G P i.l.c.i.G ",
"6 _ _ G G P P 2 5 H / _ P ` y.y._ U ) K _ / _ _ _ _ > h v H ` y.y.` / L G ` 6 _ G ` 5 3 o.7 _ y.i.i.i.y._ 6 G / _ L _ ` l.c.c.^ ",
"5 _ _ H ^ H 6 L L P / l.^ / ` y._ P _ P ` ` y.` ` ` P U # 5 _ y.' 7 1 & 6 L 5 L & = 6 P 5 P _ y.i.i.y.` ^ 6 L _ _ L / i.l.l.C.c.",
"6 / 6 2 & 2 H P P P ^ _ P ` ` ` / / _ P y.i.l.i.y.` P 5 H 2 6 H q : 1 L Z.G.2 5 & H / i.L _ _ y.y.` P H H / / L H 6 / G i.l.c.C.",
"2 2 G 1 2 P _ _ ` ` ` ` 5 ^ ` _ _ _ ` 6 5 _ _ ` y._ L 5 ^ 2 . 1 9 ; * L Z.^ 5 G 6 / i.l.P ^ P _ / ^ P P _ ^ ^ L ^ 5 L G H i.c.c.",
"5 H P G G / ` ` ` y.y.` 5 ^ _ / _ ` ` 6 5 6 6 H P G L 1 y._ 5 _ y.( U P 5 / 6 ^ _ G y.l.l.l.y.L l.l.l.i./ G L L L ^ _ ^ L H l.y.",
"+ L _ ^ L ^ ` ` y.y.y.L H G H L _ ` / @ 2 P ` _ G G ` ^ H y.5 y.i.y.` _ H 6 6 / _ _ P y.l.l.y.i.i.i.i.` P H / _ ` ` ` / ^ ` c.P ",
"6 / ^ _ _ ^ ` y.` ` _ * P ^ 6 6 L ^ H 2 H _ l.l.l.i.i.` P % 6 y.i.y.y.y.H 6 / _ / _ _ L _ ` i.y.y.` P P H / _ ` ` _ / l.H 6 y.G ",
"K G P ^ G H _ / / ^ 5 9 / _ _ / G G 1 & i./ l.l.l.l.i.i.` 6 H i.i.i.i.y._ G G _ / / / 6 6 1 P _ ^ P 5 / _ / ` _ ^ ^ c.y.G 2 ^ u ",
"U L / _ _ / G G L H H G ^ / _ _ _ _ 7 - + L ` l.l.l.l.i.i._ L i.i.y.y.y.( 6 6 _ _ _ / / 4 , u = 5 2 G / / P L ^ P c.c.` G H q z ",
", P / ` ` ` / P 1 1 L L ^ / _ _ _ _ W     : L i.l.l.i.i.i.y.6 y.i.y.y.i._ 3 = _ _ _ _ P G ) ~ q * L H H L 6 6 P P c.l.^ H 6 r a ",
"N i.i.i.i.i./ 6 _ L y.Z.L / / _ _ _ E     F & / y.l.l.l.l.i.4 ) ` i.i.y._ - % P _ _ ^ G _ _ _ ( H G H / L ^ y._ ^ H X.J i.l./ q.",
"C i.i.i.i.i.P i.c.L Z.Z.L P ^ ^ / ( t     ] H L / ` ` y.i.` 5 a O.y.i.i.` H ` H / L 5 6 _ _ _ ^ 5 ` H _ H ` l.c.` * X ] i.L i.G.",
"] ^ ^ i.` P P P c./ C.c.C.L H H e b     ,.H ^ 2 L P L ^ / I M A   { y.y._ H l.L L H / 1 % 6 ^ 0 5 _ H ^ 6 i.L P P P = & 6 L _ K.",
"K.^ / _ _ P ` / C._ L L L H / ^ z       L _ c.P i.i.i.i.G x       P.! _ P H l.l.l.l.i.^ 2 5 P K G P ` y.1 H L / / ` H 2 & H / P ",
"2 P H P _ ^ i.i._ 5 G P / H 1 g.      b ` Z.G.y.H y.y.6.          g h R H i.l.l.l.l.i.i.P @ H ^ y.L ^ _ 1 P / ` ` _ P 6 6 P L G ",
"% 2 6 _ / l.l.i._ H / y.c.` H ]       [ c.C.Z.Z.8 ..8.            l S o * G i.l.l.l.y.y.` 5 H L ` y.L 1 G _ ` _ / y.^ L H P ^ 2 ",
"5 2 L _ _ / l.` / ` l.c.i._ P  .      c.C.L P P p c         A N T W R @.! n | i.l.i.` y.` H G L _ G 5 @ / y.y.y.P ^ P ^ / _ _ / ",
"_ P ` P _ _ ^ _ y.^ l.y.` ` / #.  i G L ^ ^ _ ` [ ..U.    y q I _ _ _ ` ` v Z [ ` ` / ^ P _ & 6 5 G 6 _ y.y.y.^ / / _ L L G / L ",
"i.P ` 5 L / P ^ _ P _ ^ i.i.K b   < / _ ` ` ` y.l.i.] X.:.8 _ y.i.y.y.y.`     s I P H L i.L P / ^ ^ G / y.y.y.^ _ ^ _ L L G P H ",
"l.^ / 2 1 2 L L L _ / _ _ ` _ M   m._ i.i.y.` y.l.l...B | L y.i.y.H H y._ V     H G ` y.y.L _ l.i._ H L y.y.y.` P 6 L / _ P L l.",
"i.L .. .7 6 ` i._ / i.` / ` I $.=.J i.i.i.i.` i.i.l.4.  | _ y.H L L P H / s   B _ ` y.i.i.L L / / P 6 2 ` ` _ ^ G & P l.C.y.^ H ",
"] p   2.&.K ` y._ / i.y./ _ U 9.r P i.i.i.i.` ` ` -.    W y.L P / ` ` _ L * c I / ` L P 6 G ^ l.l.y._ 6 8 U ^ L & G / i.C.C./ H ",
"J k     o.^ ` _ / i.i.y.H P y.} T ` i.i.i.L P H 7 l     R L _ ` y.i.i.i._ P = 5 L / 5 P ` l.c.Z.Z.C.c.` Y e / ^ G _ ` i.l.C.` H ",
"= = 8 & 6 P / _ y.y.y._ H G _ Q 7 _ _ ` L ^ _ ^ I v   f @.H ` i.i.i.i.i.i._ H 5 1 6 H y.Z.Z.Z.Z.C.C.C.m...J H ^ G _ i.y.y.c.l./ ",
"1 G L P 5 L ^ / ` _ _ ^ / c._ ^ r H 6 H L / ` _ ` ( E v 1.- P i.i.i.i.i.H H _ 5 % G y.i.c.C.C.C.C.c.] { ~ E { ^ G y.i.l.l.C.C.L ",
"^ ` ` y.G H L ^ / y.y._ / c.y.I 8 7 H ^ / ` ` _ ` / _ ' M O < / i.i.i.i.L L P H 2 5 P _ ` y.i.c.l.y./ ' Y n ! / G y.Z.Z.Z.Z.C.H ",
"` i.i.i.^ % H G P y.` _ / i./ ^ U 5 H ^ / / ^ ^ / _ ` ` _ ; y $ ^ y.H L P / / _ P P c./ ` ^ P _ / / i._ ` J r ) _ c.Z.Z.Z.Z._ G ",
"i.i.i.i./ 2 2 @ 6 P _ / c._ ^ H 5 G L ^ _ _ P ^ _ _ _ ` ` H 5 & 1 _ H / _ ` _ ` ^ ` l.l./ L P P H y.) U P P 3 } K ( l.Z.Z.i.L G ",
"i.i.i.i.^ L 5 H 2 5 6 L _ I 7 6 L H H L ^ _ P ^ _ _ _ _ L 6 1 ^ 2 2 L ` ` _ _ ` _ G l.l._ _ G 6 H 9 K K ^ L I w ;.b 8.C.C.^ H G ",
"i.y.i.i.P ` G G ^ P G G K t 9 ( ` _ P 6 G J H ^ / ^ L H H 6 L & 6 H _ ` H G / _ _ 6 l.l./ P H U Q 8 G ) ) / ' T m     ] / L H H ",
"i.y.y.` / i.L 6 P i.` ( I.M r ` y.y.` P G 5 1 G L 5 H ` l.c./ & y.P _ ` H H 6 6 P 1 P / L ^ P I { ^ L H ] _ _ _ b i   c 4 2 y.i.",
"i.y.` _ L c.G H L l.H 0 D i P i.i.i.y.` ^ 6 6 ^ P G P i.l.c.i.G H / _ G H P L 6 2 G P ` L _ _ _  .) _ L i.] _ _ ^ 4 j d x ^ ` i.",
"y.` / L G ` 6 _ G ` 5 3 o.7 _ y.i.i.i.y._ 6 G / _ L _ ` l.c.c.^ 6 _ _ G G P P 2 5 H / _ P ` y.y._ U ) K _ / _ _ _ _ > h v H ` y.",
"' 7 1 & 6 L 5 L & % 6 P 5 P _ y.i.i.y.` ^ 6 L _ _ L / i.l.l.C.c.5 _ _ H ^ H 6 L L P / l.^ / y.y._ P _ P ` ` y.` ` ` P U # 5 _ y.",
"q : 1 L Z.G.2 5 & H / i.L _ _ y.y.` P H H / / L H 6 / G i.l.c.C.6 / 6 2 & 2 H P P P ^ _ P ` ` ` / / _ P y.i.l.i.y.` P 5 H 2 6 H ",
"9 ; * L Z.^ 5 G 6 / i.l.P ^ P _ / ^ P P _ ^ ^ L ^ 5 L G H i.c.c.2 2 G 1 2 P _ _ ` ` ` ` 5 ^ ` _ _ _ ` 6 5 _ _ ` y._ L 5 ^ 2 . 1 ",
"y.( U P 5 / 6 ^ _ G y.l.l.l.y.L l.l.l.i./ G L L L ^ _ ^ L H l.y.5 H P G G / ` ` ` y.y.` 5 ^ _ / _ ` ` 6 5 6 6 H P G L 1 y._ 5 _ ",
"i.y.` _ H 6 6 / _ _ P y.l.l.y.i.i.i.i.` P H / _ ` ` ` / ^ ` c.P + L _ ^ L ^ ` ` y.y.y.L H G H L _ ` / @ 2 P ` _ G G ` ^ H y.5 y.",
"i.y.y.y.H 6 / _ / _ _ L _ ` i.y.y.` P P H / _ ` ` _ / l.H 6 y.G 6 / ^ _ _ ^ ` y.` ` _ * P ^ 6 6 L ^ H 2 H _ l.l.l.i.i.` P % 6 y.",
"i.i.i.y._ G G _ / / / 6 6 1 P _ ^ P 5 / _ / ` _ ^ ^ c.y.G 2 ^ u K G P P G G _ / / ^ 5 9 / _ _ / G G 1 & i./ l.l.l.l.i.i.` 6 H i.",
"i.y.y.y.( 6 6 _ _ _ / / 4 , u = 5 2 G / / P L ^ P c.c.` G H q z U L / _ _ / G G L H H G ^ / _ _ _ _ 7 - + L ` l.l.l.l.i.i._ L i.",
"i.y.y.i._ 3 = _ _ _ _ P G ) ~ q * L H H L 6 6 P P c.l.^ H 6 r a , P / ` ` ` / P 1 1 L L ^ / _ _ _ _ W     : L i.l.l.i.i.i.y.6 i.",
"` i.i.y._ - % P _ _ ^ G _ _ _ ( H G H _ L ^ y._ ^ H X.J i.l./ q.N i.i.i.i.i./ 6 _ L y.Z.L / / _ _ _ E     F & / y.l.l.l.l.i.4 ) "
};
