/* XPM */
static char *efe220d77ad2410bc6a33c8434a72c5eAOrVJGjBaNKERnfG[] = {
/* columns rows colors chars-per-pixel */
"100 100 85 1 ",
"  c #157715",
". c #117A11",
"X c #117B11",
"o c #157815",
"O c #187518",
"+ c #1E721E",
"@ c #1C741C",
"# c #276E27",
"$ c #2B6B2B",
"% c #2B6C2B",
"& c #2C6B2C",
"* c #2C6C2C",
"= c #217121",
"- c #247024",
"; c #336733",
": c #346734",
"> c #316931",
", c #3A643A",
"< c #3C633C",
"1 c #435F43",
"2 c #465D46",
"3 c #495D49",
"4 c #4C5B4C",
"5 c #525752",
"6 c #575557",
"7 c #525852",
"8 c #5B535B",
"9 c #595459",
"0 c #5D525D",
"q c #406140",
"w c #634F63",
"e c #674D67",
"r c #6A4B6A",
"t c #684C68",
"y c #6C4A6C",
"u c #605060",
"i c #714771",
"p c #744674",
"a c #7A437A",
"s c #794479",
"d c #7E417E",
"f c #833E83",
"g c #853E85",
"h c #8B3A8B",
"j c #883C88",
"k c #8D398D",
"l c #913791",
"z c #953595",
"x c #913891",
"c c #9A329A",
"v c #983498",
"b c #9F309F",
"n c #A22FA2",
"m c #A62CA6",
"M c #AA2BAA",
"N c #A82CA8",
"B c #AD29AD",
"V c #A030A0",
"C c #B027B0",
"Z c #B724B7",
"A c #B028B0",
"S c #B923B9",
"D c #BE20BE",
"F c #814081",
"G c #C11FC1",
"H c #C61CC6",
"J c #CB1ACB",
"K c #CC19CC",
"L c #DF0FDF",
"P c #D216D2",
"I c #D713D7",
"U c #D614D6",
"Y c #D018D0",
"T c #DB12DB",
"R c #DC11DC",
"E c #E20EE2",
"W c #E60CE6",
"Q c #EE07EE",
"! c #E80BE8",
"~ c #EE08EE",
"^ c #F007F0",
"/ c #F703F7",
"( c #F604F6",
") c #FA02FA",
"_ c magenta",
/* pixels */
"____________________________________________________________________________________________________",
"____________________________________________________________________________________________________",
"____________________________________________________________________________________________________",
"____________________________________________________________________________________________________",
"____________________________________________________________________________________________________",
"____________________________________________________________________________________________________",
"____________________________________________________________________________________________________",
"____________________________________________________________________________________________________",
"____________________________________________________________________________________________________",
"____________________________________________________________________________________________________",
"____________________________________________________________________________________________________",
"____________________________________________________________________________________________________",
"____________________________________________________________________________________________________",
"__________________________________________)^WJCbzllcMGR~/___________________________________________",
"_______________________________________WDg6& ..........-2iMT)_______________________________________",
"____________________________________~Cw&...................=4zR_____________________________________",
"__________________________________!j;o........................-wJ___________________________________",
"________________________________~f+............................. 6P_________________________________",
"______________________________(m&.................................OpE_______________________________",
"_____________________________I6.....................................>B______________________________",
"____________________________m#....................................... y~____________________________",
"__________________________/dO..........................................2R___________________________",
"_________________________(e.............................................>P__________________________",
"________________________~9...............................................%J_________________________",
"_______________________^9.................................................#K________________________",
"______________________(t...................................................>T_______________________",
"______________________h.....................................................2~______________________",
"_____________________SO......................................................y)_____________________",
"____________________W&....................................................... M_____________________",
"____________________0.........................................................#W____________________",
"___________________C ..........................................................0____________________",
"__________________^<........................................................... D___________________",
"__________________c.......................................... 0d,...............4/__________________",
"_________________~,..........................................i)_!p .............OZ__________________",
"_________________M..........................................,^____S:.............9)_________________",
"________________)4.........................................OH______E>............OU_________________",
"________________T .........................................F________w.............g_________________",
"________________h.........................................2~_______~,.............</________________",
"________________,........................................+H________f...............U________________",
"_______________L.........................................f________HO...............z________________",
"_______________m........................................q)_______(,................6________________",
"_______________p.......................................+P________p.................=)_______________",
"_______________3.......................................x________SO..................R_______________",
"______________(%......................................4^_______!,...................S_______________",
"______________E=.....................................=P_______)i....................c_______________",
"______________P@.....................................l________ZO....................f_______________",
"______________HO....................................4/_______!:.....................p_______________",
"______________D ...................................=R________r......................r_______________",
"______________Do....................&iq............n________B.......................t_______________",
"______________D ...................qW_)t..........8)_______E$.......................r_______________",
"______________HO..................qW___(ro.......%T_______)e........................p_______________",
"______________P@.................2W_____^y...... V________m ........................g_______________",
"______________W=................OP_______(r.....0)_______E*.........................b_______________",
"______________)&................=!________)t...=W________0..........................S_______________",
"_______________4.................g_________)y. A________n...........................E_______________",
"_______________s.................oh)________(yy)_______T#..........................#________________",
"_______________M.................. g)________(^_______(6...........................0________________",
"_______________W................... h)________________vo...........................c________________",
"________________q...................ok)______________U#...........................oR________________",
"________________l....................ok)____________(5............................q)________________",
"________________RO.....................h)___________z.............................k_________________",
"________________)6..................... j)_________PO............................=T_________________",
"_________________Z......................ok________(2.............................u)_________________",
"_________________^q......................ox_______j.............................OG__________________",
"__________________mo......................oh)____J=.............................6)__________________",
"__________________^2....................... g)__!1.............................OH___________________",
"___________________D .......................o3zl:..............................r____________________",
"____________________t.........................................................%~____________________",
"____________________~:.......................................................OZ_____________________",
"_____________________G+......................................................a)_____________________",
"______________________c ....................................................7^______________________",
"______________________)s...................................................:W_______________________",
"_______________________(e.................................................&T________________________",
"________________________(t...............................................:U_________________________",
"_________________________(ao............................................qT__________________________",
"__________________________)zO..........................................6W___________________________",
"____________________________S&.......................................OF)____________________________",
"_____________________________WeO....................................<D______________________________",
"______________________________)C<.................................=g!_______________________________",
"________________________________Qc&.............................OiT_________________________________",
"__________________________________(n<o........................=aE___________________________________",
"____________________________________)Hp;O................. %9m^_____________________________________",
"_______________________________________(Jvw<%O.......o=:5fSW________________________________________",
"___________________________________________(EUGCNmmBDYR~____________________________________________",
"____________________________________________________________________________________________________",
"____________________________________________________________________________________________________",
"____________________________________________________________________________________________________",
"____________________________________________________________________________________________________",
"____________________________________________________________________________________________________",
"____________________________________________________________________________________________________",
"____________________________________________________________________________________________________",
"____________________________________________________________________________________________________",
"____________________________________________________________________________________________________",
"____________________________________________________________________________________________________",
"____________________________________________________________________________________________________",
"____________________________________________________________________________________________________",
"____________________________________________________________________________________________________",
"____________________________________________________________________________________________________",
"____________________________________________________________________________________________________",
"____________________________________________________________________________________________________"
};
