/* XPM */
static char *_b84f837411b496d89c17d07e04db8deub6dZMHhXGdoP1Ia[] = {
/* columns rows colors chars-per-pixel */
"64 64 211 2 ",
"   c #0182FF",
".  c #0A86FF",
"X  c #048BFF",
"o  c #0A8CFF",
"O  c #138CFF",
"+  c #1A8FFF",
"@  c #0693FF",
"#  c #0C93FF",
"$  c #0B9AFF",
"%  c #1394FF",
"&  c #1B93FF",
"*  c #129BFF",
"=  c #1B9CFF",
"-  c #2294FF",
";  c #2995FF",
":  c #239CFF",
">  c #2C9CFF",
",  c #329CFF",
"<  c #0DA3FF",
"1  c #0EACFF",
"2  c #16A2FF",
"3  c #1AA5FF",
"4  c #13ACFF",
"5  c #1BABFF",
"6  c #15B1FF",
"7  c #1DB3FF",
"8  c #14BCFF",
"9  c #1CBDFF",
"0  c #24A4FF",
"q  c #2BA4FF",
"w  c #26A9FF",
"e  c #2AADFF",
"r  c #34A4FF",
"t  c #3BA5FF",
"y  c #35ACFF",
"u  c #3BABFF",
"i  c #22B5FF",
"p  c #2DB1FF",
"a  c #25BBFF",
"s  c #29BEFF",
"d  c #33B4FF",
"f  c #3CB3FF",
"g  c #34BAFF",
"h  c #3ABDFF",
"j  c #43A4FF",
"k  c #4AA7FF",
"l  c #44AAFF",
"z  c #4CACFF",
"x  c #52ADFF",
"c  c #42B5FF",
"v  c #4DB4FF",
"b  c #45BBFF",
"n  c #4ABEFF",
"m  c #51B3FF",
"M  c #5CB5FF",
"N  c #51B9FF",
"B  c #5BBDFF",
"V  c #66B6FF",
"C  c #64BBFF",
"Z  c #6CBCFF",
"A  c #79BFFF",
"S  c #1EC4FF",
"D  c #16C8FF",
"F  c #1BD2FF",
"G  c #1DDEFF",
"H  c #21C4FF",
"J  c #2BC5FF",
"K  c #25CBFF",
"L  c #2CCBFF",
"P  c #32C5FF",
"I  c #3DC2FF",
"U  c #31CCFF",
"Y  c #3ACDFF",
"T  c #2AD3FF",
"R  c #35D3FF",
"E  c #3BD4FF",
"W  c #36D9FF",
"Q  c #3BDBFF",
"!  c #1EE1FF",
"~  c #21EBFF",
"^  c #35E1FF",
"/  c #3EE3FF",
"(  c #3EECFF",
")  c #24F4FF",
"_  c #26FCFF",
"`  c #28FFFF",
"'  c #43C6FF",
"]  c #4DC1FF",
"[  c #44CAFF",
"{  c #4ACDFF",
"}  c #54C5FF",
"|  c #5DC1FF",
" . c #55CAFF",
".. c #5BCCFF",
"X. c #42D5FF",
"o. c #4CD2FF",
"O. c #4BDDFF",
"+. c #52D4FF",
"@. c #5ED0FF",
"#. c #54DBFF",
"$. c #5CDDFF",
"%. c #63C5FF",
"&. c #6CC2FF",
"*. c #66CBFF",
"=. c #6BCBFF",
"-. c #73C5FF",
";. c #7CC3FF",
":. c #73CFFF",
">. c #7ACAFF",
",. c #62D2FF",
"<. c #6BD3FF",
"1. c #63DCFF",
"2. c #6CDBFF",
"3. c #74D1FF",
"4. c #7CD3FF",
"5. c #72DEFF",
"6. c #7ED8FF",
"7. c #44E4FF",
"8. c #4BE5FF",
"9. c #44EAFF",
"0. c #4CEBFF",
"q. c #56E2FF",
"w. c #5CE3FF",
"e. c #51EDFF",
"r. c #5EEAFF",
"t. c #46F3FF",
"y. c #4AF6FF",
"u. c #4EFDFF",
"i. c #53F2FF",
"p. c #5BF4FF",
"a. c #55F9FF",
"s. c #5CF9FF",
"d. c #61E3FF",
"f. c #69E6FF",
"g. c #64ECFF",
"h. c #6BECFF",
"j. c #73E1FF",
"k. c #7BE5FF",
"l. c #72EDFF",
"z. c #7CEAFF",
"x. c #64F3FF",
"c. c #6BF4FF",
"v. c #63FCFF",
"b. c #6DFCFF",
"n. c #73F5FF",
"m. c #74FCFF",
"M. c #7BFDFF",
"N. c #8AC5FF",
"B. c #84CBFF",
"V. c #8CCDFF",
"C. c #94CBFF",
"Z. c #99CFFF",
"A. c #84D1FF",
"S. c #8DD6FF",
"D. c #83DBFF",
"F. c #8BDCFF",
"G. c #91D2FF",
"H. c #9BD2FF",
"J. c #95DBFF",
"K. c #9BDDFF",
"L. c #A5D8FF",
"P. c #ABDAFF",
"I. c #B5DEFF",
"U. c #84E7FF",
"Y. c #8CE3FF",
"T. c #82EDFF",
"R. c #92E5FF",
"E. c #9EE1FF",
"W. c #95EAFF",
"Q. c #9BECFF",
"!. c #86F2FF",
"~. c #8BF5FF",
"^. c #83FCFF",
"/. c #8DFCFF",
"(. c #93F5FF",
"). c #9BF4FF",
"_. c #94FCFF",
"`. c #9BFDFF",
"'. c #A5E3FF",
"]. c #A8E7FF",
"[. c #A3ECFF",
"{. c #ACEAFF",
"}. c #B4E4FF",
"|. c #BAE6FF",
" X c #B3ECFF",
".X c #BEEAFF",
"XX c #A3F3FF",
"oX c #A9F6FF",
"OX c #A3FDFF",
"+X c #ADFAFF",
"@X c #B6F2FF",
"#X c #BCF3FF",
"$X c #B3FDFF",
"%X c #BBFEFF",
"&X c #C7E8FF",
"*X c #C3EDFF",
"=X c #D5EDFF",
"-X c #D9EDFF",
";X c #C1F5FF",
":X c #CCF2FF",
">X c #C5FAFF",
",X c #CCFDFF",
"<X c #D3F5FF",
"1X c #DCF3FF",
"2X c #D1FDFF",
"3X c #DBFAFF",
"4X c #E5F3FF",
"5X c #E3FDFF",
"6X c #EDFCFF",
"7X c #F2FCFF",
"8X c #FBFEFF",
/* pixels */
"p.J i p } 6.XX_._.n.O.4         X * #._.oX=.y e e *     X i #._.$X#XP.E.Q.T.w.7     < 0.M.`.M.m.9.#.,.5.XX>X>X$X_.o.5 e ..Y.`.^.",
"K     * g b n $.x.m.m.R X # 2 6 F 9.b._.Q.y = # #       # [ T.`.$XK.z V K.Q...%     $ g._.M.0.L X   o : c >.*X,X$X!.w.5.oXOX^.v.",
"U < 5 I n b w # i 9.M.m.9.z.q.9._ u.b._._.'   @       # [ T.(._.~.6.t O V.{.4.&   5 { !.M.i.S     X 3 p q u &.*X,X$X_.+X,X%X_.h.",
"o.P I  .] h 5 X   < 9.M.m./.b.y.~ L o.~.$X2.w 3   X p #._.`.l.w.f.5.B ; -.|.'.%.b #.T.oX_.g.5   X * e c : % > S.<X,X$X,X3X;XR.2.",
"} d q r y d i @     J m.OX^.8.9 X   o ..oXoX!.g.Q q.!._.`.l.X.3 s d.k.:.4.'.|.'.Y.T.oX>X).b % X # 3 f y % X o | {.<X,X3X&XH.B.=.",
"| f & & > q p *     4 i.M.a.8     X   % j.$X$X_.m._.$X`.^.X.$   6 e.M.`.).[.}.*X@XXX>X,XXX: o # % q e =       ] W.@X3X1X=XI.G.&.",
"C B z z l r c 3 X   i c.m.t.$   @ $ X w z.$X+X$X_.+X#X$XOXl.g H e.M.`._.^.).[.}.:X>X,X$X(.h X X # = 2 X     3 o.j.Q.,X3X6X4XC.Z ",
", > j V M z v y % o h ~._.w.#   X     L b._._._.!.2.N >.$X`.^.s.M.~.g.g.i.l.U.4.E.{.Q.T.h.E X     3 <     5 #.z.6.J.3X7X8X7XC.j ",
"O   O j k j r & % w ,.oX_.c.5       < 9.M.m.c.w.I = & B >X$X_.g.,.I i 7 9 X.$.<.D.J.%. .d.e.4     @ #   # [ k.Y.A.K.3X7X6X6X|.V ",
"z . O ; - - ; & N T.$X_./.M.O.9 8 K 0.M.m.y.7 # X X e 2.XX#XB q 0 5 $     6 X.f.k.3.> O } h.0.T K i e J o.j.Y.S.H.}.2X5X<X:X3XE.",
"D.-     O . & B `._._._.m.M.m.u._ u.m.m.y.8   X   $ Q c.j.u r & = 5 @     # [ T.Y.m & O l U.M.v.s.n.!.g.T.6.V z -.>X$X,X#X>X>X+X",
"!.z.3.%.4.S.D.T.m.g.q.#.Q 7.v.u.` u.m.g.I X       S p.g.] . : : q w $     X p 2.:.r & . r S.`.^.M.~.[.T.[.-.t &.R.+X_.$XXXQ.Q.!.",
"w.m._._.+X+X`.M.9.3 o     @ 8.u._ u.c.g X       X R c.o.%   & : : = #       * [ f .     : *./.m.x.1.<.k.5.%.=.W.)._.m.!.@.q & e ",
"5 Q g.c./._.^.y.8           K u.` u.R X       @ L d.R #   % % % % % % o   X 0 #.[ %   # d $.w.U 3 P b w w @.~.^.M.r.U g o       ",
"  X * J x.m.b.9.@   # @ @   6 y.` a.<     X 4 O.b.i.1   X # # * # # 2 $     % r.i.a o # i P i     ^ 8.s P c.b.x.0.7 X X   X #   ",
"X X   X ^ u.u.T     X @ $ X 6 u.u.T       9 t.u.u.(     @   @ @ @ @ $ X     H u.u.t.T T T K K     u.u.u.t.u.u.^ 9     $ X   @ < ",
"        F ` ` G             ! u._ 8 X $ $ ! ` ` _ D   X @   @ @ X X X   @ D ) ` ` _ ` ` ` _ _ _ _ G _ ` ) ) _ D <     X @ X @ $ ",
"# $ @   U u.u./ o     X X 4 b.u.) R U / / u.u.u.t.5 @ 2 X X # #       X L y.u.u.y.t.y.y.y.y.u.u.y.3 L t./ / t.i             o * ",
"% # # X e c.m.g.%   o % J 0.m.u.` u.m.m.m.m.m.m.m.s   $     X X X   @ Q b.c.q.o.[ w d w.g.#.g.m.c.w * [ #.c.0.4     X X       # ",
"% X o o q T._.!.y o : @.c._.b.y._ u.m.m.a.0.i.M.b.W             X 6 9.m.~.2.% = y % . } j...2._.r.* X 5 ' h.8.<   X   X @ X # % ",
"O   o & | +X$X$XQ.W.T.$X`._.m.y._ u.a.L 4 $ 4 9.M.s.K 7 = o $ H / i.m.~.=.> . t | t   v 3.v <.m.L     X 3 +.w.5       X # X o O ",
"& O & - -.,X,X,X$X`._._.`./.m.u._ u.F         $ 0.M.v.c.k.w.9.s.m.M./.6..   ; Z A.C & m -.v Y._.I       o b d.P <     X # o o o ",
". & ; - Z 3X,X%X$Xc.g.o.5.^.m.u._ W $   X   X X o._.^._.$X_.m.^.~.~.oXA.+ k ;.B.B.V.-.A.P.}.>X$X2.o   X   f 5.$.E 4   X o X X   ",
"o q r & B.,X$X(.2.a 2 X % 1.b.( 8 * o   X X o o ..$XOX$X/.j.k.T.oXoX XZ j H.L.V x '.>X$X>X3X,X$XT.%   X X p 2.j.w.J             ",
"0 v l , K.$X`.d.0     < P l.i.6 X $ 2 X       o <.$X$X_.w.e e } XX>X:XV.A P.P.Z >.$X$X`.$X,X$X`.M.X.@     5 o.2.w.R $       # = ",
"v M x M Q.(.w.i # X X J g.m.Q @ @ 2 % * X   o : F.$X!.o.5 X * p !.$X,X3X1X1X<X#X$X`._.m.!.Q.XX_.M.v.K     7 [ ,.2.$.Y 4 o # = y ",
"C Z >.XXT.[ *     X s g._.m.J   @ * # *   X # 5.$X/.I $       # d._.$X,X3X<X2X$X`.n.#.R [ q n { x.m.x.K 5 h } =.6.5.1.Q [ h c r ",
".X=X:X#X=.O X 5 K / c._.`.m.a X @ # X     6 0.M._.j.o     X # % j.$X,X3X|. X$X_.g.s # @ # # o * 3 U c.v.c.j.=.v z F.(.M._.~.W.J.",
"7X7X1XL.t & = +.s.m._.$X_.w.*   @ o     X Q m._._.{   o o X X X D.>X,X*XS.Q.`.m.Q @       #       X 7.m._.+XK.G.J.>X$X`.$X$X,X5X",
"7X7X=XZ.Z K.R.(.M.M.`.$X_.c.3     X 3 H Q m._._.n.i   * o     O [.$XoX{.}. X+X_.#.#   @ X % o #   X g !.$X,X3X,X;X+X~.T.!.oX,X5X",
"5X4X-X&X|.#XoX~.g.g.n.`.OX^.q.T F / c.v.m._.k.M.i.<   X   X o v )._.!.W.{.*X>X$X!.p # % * % % o X o : Y.>X3X,XoXY.2.[ [ ' ,.W.>X",
",X<X&X*X XXX!.+.a i E m.$X_.m.u._ u.m.M.`.$XQ._.c.5   X o q =.(.^.g.w.j.W.#X,X$X_.j.e # o # #     X c oX,X#XD...b g 5 2 2 p 5.oX",
"$X#XP.E.Q.T.w.7     < 0.M./.b.u.~ Q o.2.XX>X>X$X_.o.5 e ..Y.`.^.r.J i p } 6.XX_._.n.O.5         X * #._.+X=.y e e *     X i #._.",
"$XK.z V K.W...%     $ g.OXM.e.K X   o : c >.*X,X$X!.w.5.oXOX^.v.K     * g b n $.x.m.b.R X # 2 6 R g._.$X[.y = # #       # [ T.`.",
"~.6.t O V.{.4.&   5 { !.M.i.S     X 3 p q u &.*X,X$X_.oX,X%X_.h.U < 5 I n b w # i 8.M.m.9.g.w.e.m._.+X$X_.'   @       # [ T.(./.",
"f.5.| ; -.|.'.%.b #.T.oX_.g.5   X * e c : % > S.<X,X$X,X3X;XR.2.o.P I  .] h 5 X   < 9.M.m._.M.s.9.[ @.oX$X2.w 3   X p #._.`.l.w.",
"s d.k.:.4.'.|.'.Y.T.oX+X!.g # X @ 2 p e % X o | {.<X,X3X&XH.B.=.} d q r y d i @     J m._.m.9.a X   o ..oXoX!.g.Q q.!._.`.l.E 3 ",
"6 e.M.`.).[.}.*X@XXX>X$X!.= o @ @ 2 e =       ] W.@X3X1X=XI.G.&.| f & & > q p *     4 i.M.a.8     X   % j.$X$X_.m._.$X`.^.X.$   ",
"e.M.`._.^.).[.}.:X>X,X$X~.h X X @ * 2 X     3 o.j.Q.,X3X6X4XC.Z C B z z l r c 3 X   i c.m.t.$   @ $ X w z.+X+X$X_.+X#X$XOXl.g H ",
"M.~.g.g.i.l.U.4.E.{.Q.T.g.R X     3 <     5 #.z.6.J.3X7X8X7XC.j , > j M M z v y % o h ~._.w.#   X     L b._._._.!.2.N >.$X`.^.s.",
",.I i 7 9 X.$.<.D.J.%. .d.e.4     @ #   # [ k.Y.A.K.3X7X8X7X|.V O   O j k j r & % w ,.oX_.!.w       < 9.M.m.c.w.I = & B >X$X_.g.",
"0 5 $     6 X.f.k.3.> O } l.e.T D 7 e J o.k.Y.S.G.}.5X5X1X1X3X'.z . O ; - - ; & N T.$X$X_._.2.g a K 0.M.m.y.7 # X X e 2.XX#XB q ",
"= 5 @     # [ T.Y.m & . y l.b.u._ y.c.g.z.D.M z ;.<X,X,X:X3X>X$XD.-     O O + B `._._._.m.M.`._.m.v.M.m.y.8   X   $ Q c.j.u r & ",
"q w $     X p 5.:.t & . q 1.b.u._ t.g.T.W.-.j -.E.>X$X$X#X X[.~.!.T.3.%.A.G.D.T.m.g.w.#.Q 7.m.`._.^._.g.I X       S i.g.] . > : ",
": = #       * [ f .     :  .v.y.) Q o.j.D.-.V. X+X+X/.!.3.t & e w.m._._.$X$X`.m.9.3 o     @ / M.`.`.c.g X       X R c.o.%   - : ",
"& % % o   X 3 2.=.-   & c $.8.K < J I y t A.#X+X_.z.[ g o       5 Q g.c.`.`.M.y.8           K v.^.m.R X       @ L w.R #   % & : ",
"% & 3 $     % T.XXC O & f I i     ^ 8.h } @X$X~.g.p X X   X #     X * J n.`.M.9.@   # @ @   6 a.M.y.<     X 4 Q m.y.1   X # % = ",
"% % * X     J m._.).6.<.+.Y K     u.m./.XX$X_.w.a     $ o   % 2 X X   X 7.m.b.T     X # $ X i m.m.R       9 i.M.m.9.    @   % & ",
"o X X   @ J b._.$X,X,X>X+X/.m.u._ Q m._.XX~.m.U <     X # o # =         T v.m.Q             ^ b.m.g X $ $ 7.M.^.s.S   X #   % % ",
"      X L c._.$X;X<X,X%X).^.b.u._ 3 [ !.W.k.c.i             o = % * @   U m._.w.o     X   4 a.M./.,.[ 9.9.M.`.`.c.5 @ 2 X o # # ",
"X   @ Q m.~.Y.A.B.z M R.U.1.r.u.) 5 * { 2.n.0.4     X X       # % # # X e ~.$XT.%   o % s 0.M.OX$X$X_.M.M.M.^.`.m.s   $     X X ",
"X 6 9.m.~.6.& ; x - O %.5.{ O.u.~ * X 5 ' h.8.<   X   X @   # % % X o o q Q.,XXXy o > @.c.M.`.$X$X`.M.m.a.0.i.M.b.W             ",
"Q i.m.~.*., . k ;.k   m <.d X.u.D     X 3 +.w.5       X # X o O O   o & | ,X5X,XQ.W.Q.$X_.OX%X+X_.M.a.L 4 $ 4 9.M.s.K 7 = o $ H ",
"m.M._.6..   ; A H.Z - v %.d q.u.D       o b d.P <     X # o o o & O & - -.5X5X,X$X`._._.$X%X$X`.m.a.F         $ 0.M.v.c.k.w.9.s.",
"(.~.oXA.+ z N.C.C.V.-.4.D.j.b.u.G o   X   f 5.$.E 4   X o X X   . & ; - Z 3X2X%X$Xc.r.+.2.oX$X`.m.Q $   X   X X o._.^._.$X_.m.^.",
"oXoX XZ j H.P.Z x '.$X$XOX/.m.u.~ $   X X p 2.j.w.J             o q r & B.,X$X(.2.a 2 X % 2.+XQ.n = o   X X o o ..$XOX$X/.j.k.T.",
"XX>X:XV.A P.P.Z >.$X$X`.`.M.b.u._ R @     5 o.2.w.R $       # = 0 v l , K.$X`.d.0     < P h.!.v . = 2 X       o <.$X$X_.w.e e  .",
"!.$X,X3X1X1X<X#X$X`._.m.!.g.i.u.` u.K     7 [ ,.2.$.Y 4 o # = y v M x M Q.(.w.i # X X J g._.6.- & 0 % * X   o : F.$X!.o.5 o * p ",
"w.`.$X,X3X<X2X$X`.n.#.E [ w s K ) u.x.K 5 h } =.4.5.$.Q [ h c r C Z >.XXT.[ *     X s g._.$X&.. - = % *   X % 5.$X/.I $       # ",
"j.$X,X3X|. X$X_.g.s # @ # # X $ < U x.v.c.j.=.v z F.(.M._.~.W.J..X=X:X#X=.O X 5 K / h._.$X>XM O & % X     6 0.M._.j.o     X # % ",
"D.>X,X*XS.Q.`.m.Q @       #       X / m._.+XK.G.J.>X$X`.$X$X2X5X7X7X1XL.t & = +.s.m._.$X,X].>   % o     X Q m._._.{   # o X X   ",
"[.$XoX{.}. X+X/.#.#   @ X % o @   X g !.$X,X3X,X;X+X~.T.!.oX,X5X7X7X=XZ.Z K.R.(.M.M.`.$X,X:Xj X   o 3 S Q m._._.n.i   * o     O ",
")._.!.W.{.*X>X$X!.p # * * % # X X X = j.+X>X,XoXY.2.[ [ ' ,.W.>X5X4X-X&X}.#XoX~.g.g.n.`.%X2XW.3.,.j.n.v.m._.k.M.i.<   X   X o v ",
"^.g.w.j.W.#X,X$X`.5.e # o # #       g /.$X#XD...b g 5 2 2 d 5.oX,X<X&X*X XXX!.#.a i E m.`.%XOX_.m._._.M.`.$XQ._.c.5   X o q =.W."
};
